<?xml version="1.0" encoding="utf-8"?>
<!-- Generator: Adobe Illustrator 19.0.0, SVG Export Plug-In . SVG Version: 6.00 Build 0)  -->
<svg version="1.1" id="图层_1" xmlns="http://www.w3.org/2000/svg" xmlns:xlink="http://www.w3.org/1999/xlink" x="0px" y="0px"
	 viewBox="0 0 60 60" style="enable-background:new 0 0 60 60;" xml:space="preserve">
<style type="text/css">
	.st0{fill-rule:evenodd;clip-rule:evenodd;fill:#A7ACB1;}
</style>
<g id="XMLID_7_">
	<path id="XMLID_8_" class="st0" d="M53.6,25.7c0-0.7-0.5-1.4-1.2-1.6l-2.7-0.9c-0.8-0.3-1.9,0.3-2,1.2c-0.3,0.9,0.3,1.9,1.2,2.1
		l1.5,0.5l1.5,22l-9.9-4c-0.4-0.2-0.8-0.2-1.2,0L30,48.9L19.1,45c-0.4-0.2-0.8-0.2-1.2,0l-9.9,4l1.7-22l3.1-0.9
		c0.8-0.3,1.4-1.2,1.2-2.1c-0.3-0.9-1.2-1.4-2-1.2l-4.2,1.2c-0.7,0.2-1.2,0.9-1.2,1.6l-2,26c0,0.5,0.2,1.2,0.7,1.6
		c0.3,0.2,0.7,0.3,1,0.3c0.2,0,0.3,0,0.7-0.2l11.7-4.7l10.7,3.8h1.4l10.7-3.8l11.7,4.7c0.2,0,0.3,0.2,0.7,0.2c0.3,0,0.7-0.2,1-0.3
		c0.5-0.3,0.7-0.9,0.7-1.6L53.6,25.7L53.6,25.7z M35.1,17.5c0-3-2.4-5.4-5.3-5.4c-2.9,0-5.3,2.4-5.3,5.4s2.4,5.4,5.3,5.4
		C32.9,22.9,35.1,20.4,35.1,17.5L35.1,17.5z M28.1,17.5c0-1,0.8-1.9,1.9-1.9c1,0,1.9,0.9,1.9,1.9S31,19.4,30,19.4
		C29,19.4,28.1,18.5,28.1,17.5L28.1,17.5z M30,39.8c0.5,0,0.8-0.2,1.2-0.5c1.4-1.4,12.6-13.6,12.6-20.9c0-7.9-6.1-14.1-13.8-14.1
		s-13.8,6.3-13.8,14.1c0,7.3,11.2,19.6,12.6,20.9C29,39.6,29.5,39.8,30,39.8L30,39.8z M30,7.7c5.8,0,10.4,4.7,10.4,10.6
		c0,4.5-6.6,12.9-10.4,17.3c-3.7-4.2-10.4-12.7-10.4-17.3C19.5,12.4,24.2,7.7,30,7.7L30,7.7z"/>
</g>
</svg>
