<?xml version="1.0" encoding="utf-8"?>
<!-- Generator: Adobe Illustrator 19.0.0, SVG Export Plug-In . SVG Version: 6.00 Build 0)  -->
<svg version="1.1" id="图层_1" xmlns="http://www.w3.org/2000/svg" xmlns:xlink="http://www.w3.org/1999/xlink" x="0px" y="0px"
	 viewBox="0 0 17 17" style="enable-background:new 0 0 17 17;" xml:space="preserve">
<style type="text/css">
	.st0{fill:#999899;}
</style>
<path id="XMLID_6_" class="st0" d="M8.5,0C3.8,0,0,3.8,0,8.5C0,13.2,3.8,17,8.5,17S17,13.2,17,8.5C17,3.8,13.2,0,8.5,0z M8.5,16
	C4.4,16,1,12.6,1,8.5S4.4,1,8.5,1S16,4.4,16,8.5S12.6,16,8.5,16z"/>
<path id="XMLID_1_" class="st0" d="M8.5,9.2L8.5,9.2C8.2,9.2,8,9,8,8.7v-5c0-0.3,0.2-0.5,0.5-0.5h0C8.8,3.2,9,3.4,9,3.6v5
	C9,9,8.8,9.2,8.5,9.2z"/>
<path id="XMLID_2_" class="st0" d="M8.1,8.4L8.1,8.4c0.2-0.2,0.5-0.3,0.7-0.1l2.3,2c0.2,0.2,0.2,0.5,0.1,0.7l0,0
	c-0.2,0.2-0.5,0.2-0.7,0.1l-2.3-2C8,8.9,7.9,8.6,8.1,8.4z"/>
</svg>
