<?xml version="1.0" encoding="utf-8"?>
<!-- Generator: Adobe Illustrator 19.0.0, SVG Export Plug-In . SVG Version: 6.00 Build 0)  -->
<svg version="1.1" id="图层_1" xmlns="http://www.w3.org/2000/svg" xmlns:xlink="http://www.w3.org/1999/xlink" x="0px" y="0px"
	 viewBox="0 0 220 82" style="enable-background:new 0 0 220 82;" xml:space="preserve">
<style type="text/css">
	.st0{fill:#E99B23;}
	.st1{fill:#E47A22;}
	.st2{fill:#040000;}
	.st3{fill:#FFFFFF;}
	.st4{fill:#383231;}
</style>
<g id="XMLID_2_">
	<g id="XMLID_220_">
		<path id="XMLID_221_" class="st0" d="M41.5,21.1c-2.2,0.4-4.3-0.8-5.1-2.9l-6.9,1l0,0l-1.1,26.6l35.4-31.9l-18.7,2.8
			C45,18.9,43.5,20.7,41.5,21.1z"/>
		<polygon id="XMLID_222_" class="st0" points="18.9,32.5 9.2,44.6 26.9,47.1 		"/>
		<polygon id="XMLID_223_" class="st0" points="30.1,63.6 27.4,49.3 23.2,57.3 		"/>
		<polygon id="XMLID_224_" class="st0" points="46.1,60.8 30.8,63.8 40.6,69.1 		"/>
		<polygon id="XMLID_225_" class="st1" points="33.4,79.7 36.7,74.9 30.6,65 		"/>
		<path id="XMLID_226_" class="st2" d="M36.4,18.3c0.7,1.8,2.6,3,4.5,2.6s3.2-1.9,3.3-3.7c0-0.3,0-0.7-0.1-1c0-0.1-0.1-0.2-0.1-0.3
			c-0.5-2.1-2.6-3.4-4.7-3c-2,0.4-3.4,2.2-3.3,4.2c0,0.2,0,0.4,0.1,0.6C36.2,17.9,36.3,18.1,36.4,18.3z M37.5,15.9
			c-0.1-0.7,0.3-1.4,1-1.5s1.4,0.3,1.5,1s-0.3,1.4-1,1.5C38.3,17.1,37.6,16.6,37.5,15.9z"/>
		<polygon id="XMLID_229_" class="st1" points="28.7,20.3 19.4,31.9 27.6,46.9 		"/>
		<polygon id="XMLID_230_" class="st1" points="27.3,47.9 9.3,45.4 22.5,57.2 		"/>
		<polygon id="XMLID_231_" class="st1" points="37.2,74.4 40.3,69.7 30.6,64.2 		"/>
		<polygon id="XMLID_232_" class="st1" points="99.8,1.7 64.9,13.6 64.9,13.3 98.5,0.8 		"/>
		<polygon id="XMLID_233_" class="st1" points="96.5,10.5 64.9,13.6 64.9,13.3 97.4,9.1 		"/>
		<path id="XMLID_234_" class="st3" d="M43.1,25.9L42,25.7c0.6,0.8,2.5,3,5.4,3.1l0.9-0.8C45.8,28.3,44,26.9,43.1,25.9z"/>
	</g>
	<g id="XMLID_235_">
		<g id="XMLID_236_">
			<g id="XMLID_237_">
				<path id="XMLID_238_" class="st4" d="M63.1,71.2v4.2c0,0.3-0.2,0.5-0.5,0.5s-0.5-0.2-0.5-0.5v-9c0-0.3,0.2-0.5,0.5-0.5
					s0.5,0.2,0.5,0.5v3.9h5v-3.9c0-0.3,0.2-0.5,0.5-0.5s0.5,0.2,0.5,0.5v9c0,0.3-0.2,0.5-0.5,0.5s-0.5-0.2-0.5-0.5v-4.2H63.1z"/>
			</g>
			<g id="XMLID_240_">
				<path id="XMLID_241_" class="st4" d="M76.5,69.5v3.8c0,0.9,0.3,1.8,1.8,1.8s1.8-0.8,1.8-1.8v-3.8c0-0.3,0.2-0.5,0.5-0.5
					c0.2,0,0.4,0.2,0.4,0.5v3.8c0,1.4-0.4,2.6-2.7,2.6c-2.2,0-2.7-1.3-2.7-2.6v-3.8c0-0.3,0.2-0.5,0.5-0.5
					C76.3,69.1,76.5,69.3,76.5,69.5z"/>
			</g>
			<g id="XMLID_243_">
				<path id="XMLID_244_" class="st4" d="M88,70.6c-0.1,0.2-0.2,0.2-0.4,0.2s-0.4-0.2-0.4-0.4c0-0.1,0-0.2,0.1-0.2
					c0.4-0.6,1.2-1.1,2.4-1.1c1.7,0,2.6,1,2.6,2.5v4c0,0.2-0.2,0.4-0.4,0.4s-0.4-0.2-0.4-0.4v-0.7c-0.4,0.7-1.2,1-2.1,1
					c-1.5,0-2.5-0.7-2.5-2.1c0-1.3,1-2,2.5-2h2v-0.4c0-1-0.6-1.6-1.7-1.6C88.9,69.8,88.5,70.1,88,70.6z M91.4,73.3v-0.6h-2
					c-0.9,0-1.6,0.4-1.6,1.2s0.5,1.2,1.6,1.2C90.4,75.1,91.4,74.5,91.4,73.3z"/>
			</g>
			<g id="XMLID_247_">
				<path id="XMLID_248_" class="st4" d="M100.6,73.1l-1.8,2.6c-0.1,0.1-0.2,0.2-0.4,0.2c-0.3,0-0.5-0.2-0.5-0.5
					c0-0.1,0-0.2,0.1-0.3l2-2.7l-1.9-2.6c0-0.1-0.1-0.1-0.1-0.3c0-0.3,0.2-0.5,0.5-0.5c0.2,0,0.3,0.1,0.4,0.2l1.7,2.4l1.7-2.4
					c0.1-0.1,0.2-0.2,0.4-0.2c0.3,0,0.5,0.2,0.5,0.5c0,0.1,0,0.2-0.1,0.3l-1.9,2.6l2,2.7c0.1,0.1,0.1,0.2,0.1,0.3
					c0,0.3-0.2,0.5-0.5,0.5c-0.1,0-0.3-0.1-0.4-0.2L100.6,73.1z"/>
			</g>
			<g id="XMLID_250_">
				<path id="XMLID_251_" class="st4" d="M109,67.2c0-0.4,0.2-0.6,0.5-0.6s0.5,0.2,0.5,0.6c0,0.3-0.2,0.5-0.5,0.5S109,67.5,109,67.2
					z M110.1,75.4c0,0.3-0.2,0.5-0.5,0.5s-0.5-0.2-0.5-0.5v-5.9c0-0.3,0.2-0.5,0.5-0.5s0.5,0.2,0.5,0.5V75.4z"/>
			</g>
			<g id="XMLID_254_">
				<path id="XMLID_255_" class="st4" d="M117.3,70.6c-0.1,0.2-0.2,0.2-0.4,0.2s-0.4-0.2-0.4-0.4c0-0.1,0-0.2,0.1-0.2
					c0.4-0.6,1.2-1.1,2.4-1.1c1.7,0,2.6,1,2.6,2.5v4c0,0.2-0.2,0.4-0.4,0.4s-0.4-0.2-0.4-0.4v-0.7c-0.4,0.7-1.2,1-2.1,1
					c-1.5,0-2.5-0.7-2.5-2.1c0-1.3,1-2,2.5-2h2v-0.4c0-1-0.6-1.6-1.7-1.6C118.2,69.8,117.7,70.1,117.3,70.6z M120.6,73.3v-0.6h-2
					c-0.9,0-1.6,0.4-1.6,1.2s0.5,1.2,1.6,1.2C119.7,75.1,120.6,74.5,120.6,73.3z"/>
			</g>
			<g id="XMLID_258_">
				<path id="XMLID_259_" class="st4" d="M137.1,75.4c0,0.3-0.2,0.5-0.5,0.5s-0.5-0.2-0.5-0.5v-8.9c0-0.3,0.2-0.5,0.5-0.5h4.6
					c0.2,0,0.4,0.2,0.4,0.4s-0.2,0.4-0.4,0.4h-4.1v3.6h3.2c0.2,0,0.4,0.2,0.4,0.4s-0.2,0.4-0.4,0.4h-3.2V75.4z"/>
			</g>
			<g id="XMLID_261_">
				<path id="XMLID_262_" class="st4" d="M147.4,67.2c0-0.4,0.2-0.6,0.5-0.6s0.5,0.2,0.5,0.6c0,0.3-0.2,0.5-0.5,0.5
					C147.6,67.7,147.4,67.5,147.4,67.2z M148.4,75.4c0,0.3-0.2,0.5-0.5,0.5s-0.5-0.2-0.5-0.5v-5.9c0-0.3,0.2-0.5,0.5-0.5
					s0.5,0.2,0.5,0.5V75.4z"/>
			</g>
			<g id="XMLID_265_">
				<path id="XMLID_266_" class="st4" d="M160.4,71.5v3.9c0,0.3-0.2,0.5-0.5,0.5s-0.5-0.2-0.5-0.5v-3.7c0-1.1-0.3-1.9-1.7-1.9
					s-1.9,0.9-1.9,2v3.6c0,0.3-0.2,0.5-0.5,0.5s-0.5-0.2-0.5-0.5v-5.9c0-0.3,0.2-0.5,0.5-0.5s0.5,0.2,0.5,0.5V70c0.3-0.6,1-1,1.9-1
					C160,69,160.4,70.3,160.4,71.5z"/>
			</g>
			<g id="XMLID_268_">
				<path id="XMLID_269_" class="st4" d="M167.5,70.6c-0.1,0.2-0.2,0.2-0.4,0.2s-0.4-0.2-0.4-0.4c0-0.1,0-0.2,0.1-0.2
					c0.4-0.6,1.2-1.1,2.4-1.1c1.7,0,2.6,1,2.6,2.5v4c0,0.2-0.2,0.4-0.4,0.4s-0.4-0.2-0.4-0.4v-0.7c-0.4,0.7-1.2,1-2.1,1
					c-1.5,0-2.5-0.7-2.5-2.1c0-1.3,1-2,2.5-2h2v-0.4c0-1-0.6-1.6-1.7-1.6C168.4,69.8,167.9,70.1,167.5,70.6z M170.8,73.3v-0.6h-2
					c-0.9,0-1.6,0.4-1.6,1.2s0.5,1.2,1.6,1.2C169.9,75.1,170.8,74.5,170.8,73.3z"/>
			</g>
			<g id="XMLID_272_">
				<path id="XMLID_273_" class="st4" d="M183.5,71.5v3.9c0,0.3-0.2,0.5-0.5,0.5s-0.5-0.2-0.5-0.5v-3.7c0-1.1-0.3-1.9-1.7-1.9
					s-1.9,0.9-1.9,2v3.6c0,0.3-0.2,0.5-0.5,0.5s-0.5-0.2-0.5-0.5v-5.9c0-0.3,0.2-0.5,0.5-0.5s0.5,0.2,0.5,0.5V70c0.3-0.6,1-1,1.9-1
					C183.1,69,183.5,70.3,183.5,71.5z"/>
			</g>
			<g id="XMLID_275_">
				<path id="XMLID_276_" class="st4" d="M192.4,69c1.3,0,2,0.7,2.2,1c0.1,0.1,0.1,0.2,0.1,0.3c0,0.2-0.2,0.4-0.4,0.4
					c-0.1,0-0.2-0.1-0.3-0.2c-0.2-0.2-0.6-0.7-1.6-0.7c-1.3,0-2,0.9-2,2.6c0,1.8,0.7,2.7,2,2.7c0.8,0,1.3-0.4,1.7-0.6
					c0.1-0.1,0.2-0.1,0.3-0.1c0.2,0,0.4,0.2,0.4,0.4c0,0.1,0,0.2-0.2,0.4c-0.3,0.3-1,0.8-2.2,0.8c-1.9,0-3-1.1-3-3.5
					S190.5,69,192.4,69z"/>
			</g>
			<g id="XMLID_278_">
				<path id="XMLID_279_" class="st4" d="M203.3,69c2.3,0,2.7,1.8,2.7,2.8c0,0.4,0,0.9-0.6,0.9h-4.2c0,1.4,0.8,2.4,2.2,2.4
					c0.8,0,1.3-0.3,1.7-0.6c0.1-0.1,0.1-0.1,0.3-0.1s0.4,0.2,0.4,0.4s-0.1,0.2-0.2,0.3c-0.2,0.2-1,0.8-2.2,0.8
					c-1.9,0-3.1-1.1-3.1-3.5C200.4,70.2,201.5,69,203.3,69z M203.3,69.8c-1.3,0-1.9,0.8-2,2.1h3.9C205.2,70.9,204.8,69.8,203.3,69.8
					z"/>
			</g>
		</g>
		<g id="XMLID_282_">
			<g id="XMLID_283_">
				<g id="XMLID_284_">
					<path id="XMLID_285_" class="st4" d="M162.3,38h-20.5c-0.8,0-1.4-0.6-1.4-1.4s0.6-1.4,1.4-1.4h20.5c0.8,0,1.4,0.6,1.4,1.4
						C163.7,37.4,163.1,38,162.3,38z"/>
				</g>
				<g id="XMLID_286_">
					<path id="XMLID_287_" class="st4" d="M165.7,46.3h-27.4c-0.8,0-1.4-0.6-1.4-1.4s0.6-1.4,1.4-1.4h27.4c0.8,0,1.4,0.6,1.4,1.4
						C167.1,45.6,166.5,46.3,165.7,46.3z"/>
				</g>
				<g id="XMLID_288_">
					<path id="XMLID_289_" class="st4" d="M152,60c-0.8,0-1.4-0.6-1.4-1.4v-22c0-0.8,0.6-1.4,1.4-1.4s1.4,0.6,1.4,1.4v22
						C153.4,59.4,152.8,60,152,60z"/>
				</g>
				<g id="XMLID_290_">
					<path id="XMLID_291_" class="st4" d="M167.4,60h-30.7c-0.8,0-1.4-0.6-1.4-1.4s0.6-1.4,1.4-1.4h30.7c0.8,0,1.4,0.6,1.4,1.4
						S168.2,60,167.4,60z"/>
				</g>
				<g id="XMLID_292_">
					<path id="XMLID_293_" class="st4" d="M145.6,60c-0.5,0-1.1-0.3-1.3-0.8l-3.8-8.6c-0.3-0.7,0-1.5,0.7-1.9c0.7-0.3,1.5,0,1.9,0.7
						l3.8,8.6c0.3,0.7,0,1.5-0.7,1.9C146,60,145.8,60,145.6,60z"/>
				</g>
				<g id="XMLID_294_">
					<path id="XMLID_295_" class="st4" d="M158.8,60c-0.2,0-0.4,0-0.5-0.1c-0.7-0.3-1.1-1.1-0.8-1.8l3.5-8.6
						c0.3-0.7,1.1-1.1,1.8-0.8s1.1,1.1,0.8,1.8l-3.5,8.6C159.9,59.7,159.3,60,158.8,60z"/>
				</g>
				<g id="XMLID_296_">
					<path id="XMLID_297_" class="st4" d="M136.8,40.3c-0.2,0-0.4,0-0.6-0.1c-0.7-0.3-1-1.1-0.7-1.8l3.7-8.7
						c0.3-1.2,1.6-3.3,4.4-3.4h9.6l3.9-5.3c0.5-0.6,1.3-0.8,2-0.3c0.6,0.5,0.8,1.3,0.3,2l-4.3,5.8c-0.3,0.4-0.7,0.6-1.1,0.6h-10.3
						c-1.5,0-1.8,1.3-1.8,1.4s0,0.2-0.1,0.3l-3.8,8.8C137.8,40,137.3,40.3,136.8,40.3z"/>
				</g>
				<g id="XMLID_298_">
					<path id="XMLID_299_" class="st4" d="M167.5,40.3c-0.5,0-1.1-0.3-1.3-0.9l-3.8-8.8c0-0.1-0.1-0.2-0.1-0.3
						c0-0.2-0.4-1.3-1.8-1.4h-2.2c-0.8,0-1.4-0.6-1.4-1.4s0.6-1.4,1.4-1.4h2.2c2.9,0.1,4.2,2.2,4.5,3.4l3.7,8.7
						c0.3,0.7,0,1.5-0.7,1.8C167.8,40.2,167.6,40.3,167.5,40.3z"/>
				</g>
			</g>
			<g id="XMLID_300_">
				<g id="XMLID_301_">
					<path id="XMLID_302_" class="st4" d="M186.1,39.6h-7.6c-2.9,0-5.3-2.4-5.3-5.4s2.4-5.4,5.3-5.4h7.6c2.9,0,5.3,2.4,5.3,5.4
						S189.1,39.6,186.1,39.6z M178.5,31.7c-1.4,0-2.5,1.1-2.5,2.5s1.1,2.5,2.5,2.5h7.6c1.4,0,2.5-1.1,2.5-2.5s-1.1-2.5-2.5-2.5
						H178.5z"/>
				</g>
				<g id="XMLID_305_">
					<path id="XMLID_306_" class="st4" d="M186.1,60.8c-0.6,0-1.2-0.4-1.4-1.1c-0.2-0.8,0.3-1.5,1-1.7c2-0.5,3.3-2.2,3.3-4.2v-6.5
						c0-2.4-1.9-4.4-4.3-4.4h-4.8c-2.4,0-4.3,2-4.3,4.4v11.6c0,0.8-0.6,1.4-1.4,1.4c-0.8,0-1.4-0.6-1.4-1.4V47.3
						c0-3.9,3.2-7.2,7.1-7.2h4.8c3.9,0,7.1,3.2,7.1,7.2v6.5c0,3.3-2.3,6.2-5.5,7C186.3,60.8,186.2,60.8,186.1,60.8z"/>
				</g>
				<g id="XMLID_307_">
					<path id="XMLID_308_" class="st4" d="M200.2,50.2H200c-3.9,0-7.1-3.2-7.1-7.2v-6.1c0-3.9,3.2-7.2,7.1-7.2h0.1
						c3.9,0,7.1,3.2,7.1,7.2V43C207.3,46.9,204.1,50.2,200.2,50.2z M200,32.6c-2.4,0-4.3,2-4.3,4.4v6.1c0,2.4,1.9,4.4,4.3,4.4h0.1
						c2.4,0,4.3-2,4.3-4.4v-6.2C204.4,34.5,202.5,32.5,200,32.6L200,32.6L200,32.6z"/>
				</g>
				<g id="XMLID_311_">
					<path id="XMLID_312_" class="st4" d="M203.8,60c-0.1,0-0.2,0-0.3,0h-9.6c-0.8,0-1.4-0.6-1.4-1.4s0.6-1.4,1.4-1.4h9.7
						c0.1,0,0.1,0,0.2,0l0,0c0.1,0,0.4,0,0.6-0.2c0.3-0.3,0.5-1.2,0.3-2.2c-0.1-0.8,0.5-1.5,1.2-1.6c0.8-0.1,1.5,0.5,1.6,1.2
						c0.2,2-0.2,3.6-1.2,4.6C205.5,59.9,204.4,60,203.8,60z"/>
				</g>
				<g id="XMLID_313_">
					<path id="XMLID_314_" class="st4" d="M190.5,28.3h-16.2c-0.8,0-1.4-0.6-1.4-1.4s0.6-1.4,1.4-1.4h16.2c0.8,0,1.4,0.6,1.4,1.4
						C191.9,27.6,191.2,28.3,190.5,28.3z"/>
				</g>
				<g id="XMLID_315_">
					<path id="XMLID_316_" class="st4" d="M200.1,60c-0.8,0-1.4-0.6-1.4-1.4V26.5c0-0.8,0.6-1.4,1.4-1.4c0.8,0,1.4,0.6,1.4,1.4v32.1
						C201.5,59.4,200.9,60,200.1,60z"/>
				</g>
				<g id="XMLID_317_">
					<path id="XMLID_318_" class="st4" d="M187.4,52H177c-0.8,0-1.4-0.6-1.4-1.4s0.6-1.4,1.4-1.4h10.4c0.8,0,1.4,0.6,1.4,1.4
						C188.8,51.3,188.2,52,187.4,52z"/>
				</g>
				<g id="XMLID_319_">
					<path id="XMLID_320_" class="st4" d="M179.2,52c-0.8,0-1.4-0.6-1.4-1.4v-4.5c0-0.8,0.6-1.4,1.4-1.4s1.4,0.6,1.4,1.4v4.5
						C180.6,51.3,180,52,179.2,52z"/>
				</g>
				<g id="XMLID_321_">
					<path id="XMLID_322_" class="st4" d="M185.3,52c-0.8,0-1.4-0.6-1.4-1.4v-4.5c0-0.8,0.6-1.4,1.4-1.4s1.4,0.6,1.4,1.4v4.5
						C186.7,51.3,186,52,185.3,52z"/>
				</g>
				<g id="XMLID_323_">
					<path id="XMLID_324_" class="st4" d="M182.2,60c-0.8,0-1.4-0.6-1.4-1.4v-8.1c0-0.8,0.6-1.4,1.4-1.4s1.4,0.6,1.4,1.4v8.1
						C183.6,59.4,182.9,60,182.2,60z"/>
				</g>
			</g>
			<g id="XMLID_325_">
				<g id="XMLID_326_">
					<path id="XMLID_327_" class="st4" d="M93.7,31.7H61.5c-0.8,0-1.4-0.6-1.4-1.4s0.6-1.4,1.4-1.4h32.2c0.8,0,1.4,0.6,1.4,1.4
						S94.5,31.7,93.7,31.7z"/>
				</g>
				<g id="XMLID_328_">
					<path id="XMLID_329_" class="st4" d="M85.8,35.7c-0.8,0-1.4-0.6-1.4-1.4v-8.4c0-0.8,0.6-1.4,1.4-1.4s1.4,0.6,1.4,1.4v8.4
						C87.2,35,86.6,35.7,85.8,35.7z"/>
				</g>
				<g id="XMLID_330_">
					<path id="XMLID_331_" class="st4" d="M68.8,35.7c-0.8,0-1.4-0.6-1.4-1.4v-8.4c0-0.8,0.6-1.4,1.4-1.4s1.4,0.6,1.4,1.4v8.4
						C70.2,35,69.5,35.7,68.8,35.7z"/>
				</g>
				<g id="XMLID_332_">
					<path id="XMLID_333_" class="st4" d="M67.8,61c-0.8,0-1.4-0.6-1.4-1.4V44.9c-0.2,0.2-0.4,0.5-0.7,0.7c-2.1,1.9-3.7,2.5-3.9,2.6
						c-0.7,0.2-1.5-0.2-1.8-0.9c-0.2-0.7,0.2-1.5,0.9-1.8c0.1,0,1.2-0.5,2.8-1.9c1.6-1.5,2.7-4.1,2.7-4.1c0.3-0.6,0.9-1,1.6-0.9
						s1.1,0.7,1.1,1.4v19.6C69.2,60.3,68.6,61,67.8,61z"/>
				</g>
				<g id="XMLID_334_">
					<path id="XMLID_335_" class="st4" d="M92.4,60.7h-6.3c-4.6-0.2-5.9-3.7-6-5.5V37.6c0-0.8,0.6-1.4,1.4-1.4s1.4,0.6,1.4,1.4v17.6
						c0,0.4,0.3,2.6,3.2,2.7h6.3c0.8,0,1.4,0.6,1.4,1.4C93.8,60,93.2,60.7,92.4,60.7z"/>
				</g>
				<g id="XMLID_336_">
					<path id="XMLID_337_" class="st4" d="M74.4,54.2c-0.6,0-1.1-0.4-1.3-0.9c-0.3-0.7,0.1-1.5,0.9-1.8c9.8-3.4,15.6-12.2,15.7-12.3
						c0.4-0.7,1.3-0.8,1.9-0.4c0.7,0.4,0.8,1.3,0.4,1.9c-0.3,0.4-6.4,9.7-17.1,13.4C74.7,54.2,74.6,54.2,74.4,54.2z"/>
				</g>
			</g>
			<g id="XMLID_338_">
				<g id="XMLID_339_">
					<path id="XMLID_340_" class="st4" d="M105.4,50.2h-0.8c-3.9,0-7.1-3.2-7.1-7.2v-6.1c0-3.9,3.2-7.2,7.1-7.2h0.8
						c3.9,0,7.1,3.2,7.1,7.2V43C112.6,46.9,109.4,50.2,105.4,50.2z M104.6,32.6c-2.4,0-4.3,2-4.3,4.4v6.1c0,2.4,1.9,4.4,4.3,4.4h0.8
						c2.4,0,4.3-2,4.3-4.4v-6.2c0-2.4-1.9-4.4-4.3-4.4L104.6,32.6L104.6,32.6z"/>
				</g>
				<g id="XMLID_343_">
					<path id="XMLID_344_" class="st4" d="M108.8,60c-0.1,0-0.2,0-0.3,0h-9.6c-0.8,0-1.4-0.6-1.4-1.4s0.6-1.4,1.4-1.4h9.7
						c0.1,0,0.1,0,0.2,0l0,0c0.1,0,0.4,0,0.6-0.2c0.3-0.3,0.5-1.2,0.3-2.2c-0.1-0.8,0.5-1.5,1.2-1.6c0.8-0.1,1.5,0.5,1.6,1.2
						c0.2,2-0.2,3.6-1.2,4.6C110.5,59.9,109.4,60,108.8,60z"/>
				</g>
				<g id="XMLID_345_">
					<path id="XMLID_346_" class="st4" d="M130.8,28.6h-17.7c-0.8,0-1.4-0.6-1.4-1.4s0.6-1.4,1.4-1.4h17.7c0.8,0,1.4,0.6,1.4,1.4
						S131.6,28.6,130.8,28.6z"/>
				</g>
				<g id="XMLID_347_">
					<path id="XMLID_348_" class="st4" d="M120.4,60c-0.8,0-1.4-0.6-1.4-1.4V27.2c0-0.8,0.6-1.4,1.4-1.4c0.8,0,1.4,0.6,1.4,1.4v31.4
						C121.8,59.4,121.2,60,120.4,60z"/>
				</g>
				<g id="XMLID_349_">
					<path id="XMLID_350_" class="st4" d="M105,60c-0.8,0-1.4-0.6-1.4-1.4V24.1c0-0.8,0.6-1.4,1.4-1.4s1.4,0.6,1.4,1.4v34.5
						C106.4,59.4,105.8,60,105,60z"/>
				</g>
				<g id="XMLID_351_">
					<path id="XMLID_352_" class="st4" d="M130.8,55.8c-0.2,0-0.4,0-0.6-0.2c-6.3-3.2-7.1-18.4-7.2-20.1c0-0.8,0.6-1.4,1.3-1.5
						c0.8,0,1.4,0.6,1.5,1.3c0.3,5.9,2,15.9,5.7,17.8c0.7,0.4,1,1.2,0.6,1.9C131.8,55.6,131.3,55.8,130.8,55.8z"/>
				</g>
			</g>
		</g>
	</g>
</g>
</svg>
