<?xml version="1.0" encoding="utf-8"?>
<!-- Generator: Adobe Illustrator 19.0.0, SVG Export Plug-In . SVG Version: 6.00 Build 0)  -->
<svg version="1.1" id="图层_1" xmlns="http://www.w3.org/2000/svg" xmlns:xlink="http://www.w3.org/1999/xlink" x="0px" y="0px"
	 viewBox="0 0 280 44" style="enable-background:new 0 0 280 44;" xml:space="preserve">
<style type="text/css">
	.st0{fill:#BFC5CB;}
</style>
<g id="XMLID_2_">
	<g id="XMLID_88_">
		<path id="XMLID_94_" class="st0" d="M41.4,18.8h-3.1v2.3h-8.2v-3.9h17.8v-2.5H35.7v-3.5h15.1h0.5H54L53.8,11
			c-0.6-0.7-1.3-1.5-2-2.1c-5.7-5.3-14.2-8.4-23.4-8.4c0,0,0,0,0,0c0,0,0,0,0,0C19.2,0.5,10.7,3.6,5,8.9C4.3,9.6,3.6,10.3,3,11
			l-0.2,0.3h2.7h0.5h15.1v3.5H8.9v2.5h17.8v3.9h-8.2v-2.3h-3.1v2.3H0.6v2.5h14.9v2.8h3.1v-2.8h8.2v4.2H8.1v2.5h18.6v3.3H3.4l0.2,0.3
			c0.7,0.7,1.4,1.5,2.2,2.1c5.6,4.9,13.9,7.6,22.6,7.6c0,0,0,0,0,0c0,0,0,0,0,0c8.7,0,16.9-2.8,22.6-7.6c0.8-0.7,1.5-1.4,2.2-2.1
			l0.2-0.3H30.1v-3.3h18.6v-2.5H30.1v-4.2h8.2v2.8h3.1v-2.8h14.9v-2.5H41.4V18.8z M26.8,41.4c-6.4-0.3-12.4-2.2-17-5.5h17V41.4z
			 M47.1,35.9c-4.6,3.3-10.6,5.2-17,5.5v-5.5H47.1z M28.4,14.7L28.4,14.7h-4.4V5.3h-2.9v3.5H8.7c5.1-4,12.2-6.3,19.7-6.3
			c7.5,0,14.6,2.3,19.7,6.3H35.7V5.3h-2.9v9.4H28.4z"/>
		<g id="XMLID_89_">
			<path id="XMLID_92_" class="st0" d="M163.9,5.8v0.5h-1.4v3.6H162V6.3h-1.4V5.8H163.9z"/>
			<path id="XMLID_90_" class="st0" d="M164.4,5.8h0.8l1.2,3.4l1.2-3.4h0.8v4h-0.5V7.5c0-0.1,0-0.2,0-0.4c0-0.2,0-0.4,0-0.6
				l-1.2,3.4h-0.5l-1.2-3.4v0.1c0,0.1,0,0.3,0,0.5c0,0.2,0,0.4,0,0.4v2.4h-0.5V5.8z"/>
		</g>
	</g>
	<g id="XMLID_3_">
		<g id="XMLID_27_">
			<g id="XMLID_399_">
				<path id="XMLID_427_" class="st0" d="M64.3,33.6h3.3v-2.1h0.8v4.9h-0.8v-2.2h-3.3v2.2h-0.8v-4.9h0.8V33.6z"/>
				<path id="XMLID_425_" class="st0" d="M74.1,35.9c0.2,0,0.4,0,0.6-0.1c0.2,0,0.3-0.1,0.5-0.2c0.1-0.1,0.2-0.2,0.3-0.3
					c0.1-0.1,0.2-0.2,0.2-0.4c0-0.1,0.1-0.2,0.1-0.3c0-0.1,0-0.2,0-0.3v-3h0.8v3c0,0.1,0,0.2,0,0.4c0,0.1,0,0.2-0.1,0.3
					c-0.1,0.2-0.2,0.3-0.3,0.5c-0.1,0.2-0.3,0.3-0.5,0.4c-0.2,0.1-0.4,0.2-0.7,0.3c-0.3,0.1-0.6,0.1-0.9,0.1c-0.3,0-0.7,0-0.9-0.1
					c-0.3-0.1-0.5-0.1-0.7-0.2c-0.2-0.1-0.3-0.2-0.5-0.4c-0.1-0.1-0.2-0.3-0.3-0.5c0-0.1-0.1-0.3-0.1-0.4c0-0.1,0-0.3,0-0.4v-3h0.8
					v3c0,0.1,0,0.2,0,0.3c0,0.1,0.1,0.2,0.1,0.3c0.1,0.2,0.3,0.4,0.6,0.6C73.4,35.8,73.7,35.9,74.1,35.9z"/>
				<path id="XMLID_422_" class="st0" d="M79.2,36.3l2.6-4.9h0.7l2.6,4.9h-0.8l-0.8-1.5h-2.6L80,36.3H79.2z M82.1,32.2
					c-0.3,0.6-0.6,1.2-0.8,1.7L81,34.3h2.1l-0.2-0.5C82.6,33.4,82.4,32.8,82.1,32.2L82.1,32.2z"/>
				<path id="XMLID_420_" class="st0" d="M89.7,33.4l1.8-2h0.9l-2.2,2.4l2.2,2.5h-0.9l-1.9-2.1h0l-1.9,2.1h-0.9l2.3-2.5L87,31.5h0.8
					L89.7,33.4L89.7,33.4z"/>
				<path id="XMLID_418_" class="st0" d="M94.9,36.3v-4.9h0.8v4.9H94.9z"/>
				<path id="XMLID_415_" class="st0" d="M98.3,36.3l2.6-4.9h0.7l2.6,4.9h-0.8l-0.8-1.5h-2.6l-0.8,1.5H98.3z M101.2,32.2
					c-0.3,0.6-0.6,1.2-0.8,1.7l-0.2,0.5h2.1l-0.2-0.5C101.7,33.4,101.5,32.8,101.2,32.2L101.2,32.2z"/>
				<path id="XMLID_413_" class="st0" d="M111,36.3h-0.8v-4.9h3.8V32h-3v1.6h2.7v0.5H111V36.3z"/>
				<path id="XMLID_411_" class="st0" d="M116.8,36.3v-4.9h0.8v4.9H116.8z"/>
				<path id="XMLID_409_" class="st0" d="M124,34.2c0.4,0.4,0.8,0.9,1.1,1.3h0c0-0.5-0.1-1-0.1-1.5v-2.6h0.8v4.9h-0.8l-2.5-2.7
					c-0.4-0.5-0.8-0.9-1.2-1.3h0c0,0.4,0.1,1,0.1,1.6v2.5h-0.8v-4.9h0.8L124,34.2z"/>
				<path id="XMLID_406_" class="st0" d="M128.5,36.3l2.6-4.9h0.7l2.6,4.9h-0.8l-0.8-1.5h-2.6l-0.8,1.5H128.5z M131.4,32.2
					c-0.3,0.6-0.6,1.2-0.8,1.7l-0.2,0.5h2.1l-0.2-0.5C132,33.4,131.7,32.8,131.4,32.2L131.4,32.2z"/>
				<path id="XMLID_404_" class="st0" d="M140.2,34.2c0.4,0.4,0.8,0.9,1.1,1.3h0c0-0.5-0.1-1-0.1-1.5v-2.6h0.8v4.9h-0.8l-2.5-2.7
					c-0.4-0.5-0.8-0.9-1.2-1.3h0c0,0.4,0.1,1,0.1,1.6v2.5H137v-4.9h0.8L140.2,34.2z"/>
				<path id="XMLID_402_" class="st0" d="M148.4,31.9c-0.4,0-0.7,0-1,0.1c-0.3,0.1-0.6,0.2-0.8,0.4c-0.2,0.2-0.4,0.4-0.5,0.6
					c-0.1,0.3-0.2,0.5-0.2,0.9c0,0.3,0.1,0.6,0.2,0.9c0.1,0.2,0.3,0.5,0.5,0.6c0.2,0.2,0.5,0.3,0.8,0.4c0.3,0.1,0.7,0.1,1.1,0.1
					c0.1,0,0.2,0,0.3,0c0.1,0,0.2,0,0.4,0c0.1,0,0.2,0,0.3-0.1c0.1,0,0.2,0,0.3-0.1v0.5c-0.2,0.1-0.4,0.1-0.6,0.1
					c-0.2,0-0.5,0-0.8,0c-0.5,0-1-0.1-1.4-0.2c-0.4-0.1-0.7-0.3-1-0.5c-0.3-0.2-0.5-0.5-0.6-0.8c-0.1-0.3-0.2-0.7-0.2-1
					c0-0.4,0.1-0.7,0.2-1c0.1-0.3,0.4-0.6,0.6-0.8c0.3-0.2,0.6-0.4,1-0.5c0.4-0.1,0.9-0.2,1.4-0.2c0.1,0,0.3,0,0.4,0
					c0.1,0,0.3,0,0.4,0c0.1,0,0.2,0,0.3,0.1c0.1,0,0.2,0,0.3,0.1v0.5c-0.2,0-0.4-0.1-0.6-0.1C148.9,31.9,148.6,31.9,148.4,31.9z"/>
				<path id="XMLID_400_" class="st0" d="M153.5,35.8h3.2v0.5h-4v-4.9h3.8V32h-3.1v1.6h2.7v0.5h-2.7V35.8z"/>
			</g>
		</g>
		<g id="XMLID_23_">
			<path id="XMLID_26_" class="st0" d="M63.8,13.9c0.1,0,0.3,0,0.4-0.1c0.9-0.5,1.7-1,2.4-1.5v6.8c0,0.5,0.4,0.9,0.9,0.9
				c0.5,0,0.9-0.4,0.9-0.9v-8.3c1-1.1,1.6-1.9,1.6-2c0.3-0.4,0.1-0.9-0.3-1.2c-0.4-0.3-0.9-0.1-1.2,0.3c0,0-1.7,2.7-5,4.4
				c-0.4,0.2-0.6,0.7-0.4,1.2C63.2,13.8,63.5,13.9,63.8,13.9z"/>
			<path id="XMLID_25_" class="st0" d="M70,13.5c-0.5,0.1-0.8,0.5-0.8,1c0,0.4,0.4,0.8,0.9,0.8c0,0,0.1,0,0.1,0c2-0.2,3.7-0.6,5.2-1
				v1.8c0,1.1,0.8,2.8,3,2.8h3.8c0,0,0,0,0,0c0.3,0,1.5,0,2.4-0.9c0.5-0.5,0.7-1.1,0.7-1.8v-1.1c0-0.5-0.4-0.9-0.9-0.9
				c-0.5,0-0.9,0.4-0.9,0.9v1.1c0,0.3-0.1,0.5-0.2,0.6c-0.3,0.3-0.9,0.4-1.2,0.4c0,0,0,0,0,0h-3.8c-1.2,0-1.3-0.8-1.3-1.1v-2.4
				c4.6-1.5,6.6-3.6,6.7-3.7c0.3-0.3,0.3-0.9,0-1.2c-0.3-0.3-0.9-0.3-1.2,0c0,0-1.6,1.7-5.4,3V8.4c0-0.5-0.4-0.9-0.9-0.9
				c-0.5,0-0.9,0.4-0.9,0.9v4C73.9,12.9,72.1,13.3,70,13.5z"/>
			<path id="XMLID_24_" class="st0" d="M84.9,21.3h-9.7v-1.7c0-0.5-0.4-0.9-0.9-0.9c-0.5,0-0.9,0.4-0.9,0.9v1.7h-9.7
				c-0.5,0-0.9,0.4-0.9,0.9c0,0.5,0.4,0.9,0.9,0.9h9.7v3.9c0,0.5,0.4,0.9,0.9,0.9c0.5,0,0.9-0.4,0.9-0.9V23h9.7
				c0.5,0,0.9-0.4,0.9-0.9C85.7,21.7,85.3,21.3,84.9,21.3z"/>
		</g>
		<path id="XMLID_17_" class="st0" d="M108.7,25.9c-2.2,0.3-4.4,0-6.5-0.6c3.1-0.9,5.4-2,5.4-3c0-0.7-0.6-1.2-1.6-1.3H93.6
			c0.3-0.5,0.6-0.9,0.7-1.1h12c1.2,0,2.2-1,2.2-2.2v-5.1c0-1.2-1-2.2-2.2-2.2h-6.5c0.4-0.4,0.7-0.7,0.9-0.9h8.2
			c0.5,0,0.9-0.4,0.9-0.9c0-0.5-0.4-0.9-0.9-0.9H88.7c-0.5,0-0.9,0.4-0.9,0.9c0,0.5,0.4,0.9,0.9,0.9h9.5c-0.4,0.3-0.8,0.6-1.3,0.8
			c0,0-0.1,0-0.1,0.1h-5.3c-1.2,0-2.2,1-2.2,2.2v5.1c0,1.2,1,2.2,2.2,2.2h0.8c-0.6,0.8-1.6,2-3.2,2.7c-0.4,0.2-0.6,0.7-0.5,1.1
			c0.1,0.3,0.5,0.5,0.8,0.5c0.1,0,0.2,0,0.3-0.1c0.9-0.4,1.6-0.9,2.3-1.4h0.2c0.6,0.4,2.1,1.3,4.1,2.3c-2.4,0.5-5,0.8-7.8,0.8
			c-0.5,0-0.9,0.4-0.9,0.9c0,0.5,0.4,0.9,0.9,0.9c2.8,0,6.8-0.6,10.5-1.4c2.4,0.9,5.2,1.6,8,1.6c0.6,0,1.3,0,1.9-0.1
			c0.5-0.1,0.8-0.5,0.8-1C109.6,26.2,109.2,25.9,108.7,25.9z M91.1,14.6h15.7v0.9H91.1V14.6z M91.5,12.1h14.8c0.3,0,0.5,0.2,0.5,0.5
			v0.6H91.1v-0.6C91.1,12.3,91.3,12.1,91.5,12.1z M91.1,17.7v-0.6h15.7v0.6c0,0.3-0.2,0.5-0.5,0.5H91.5
			C91.3,18.1,91.1,17.9,91.1,17.7z M95.7,22.8h8.3c-1.2,0.5-2.8,1.1-4.8,1.6C97.9,23.8,96.7,23.3,95.7,22.8z"/>
		<g id="XMLID_9_">
			<path id="XMLID_16_" class="st0" d="M118,8.8c0.2-0.4,0.1-0.9-0.3-1.2c-0.4-0.3-0.9-0.1-1.2,0.3c0,0-1.7,2.6-5,4.4
				c-0.4,0.2-0.6,0.7-0.4,1.2c0.2,0.3,0.5,0.5,0.8,0.5c0.1,0,0.3,0,0.4-0.1c0.8-0.4,1.6-0.9,2.2-1.4v15c0,0.5,0.4,0.9,0.9,0.9
				c0.5,0,0.9-0.4,0.9-0.9V10.8C117.4,9.7,117.9,8.9,118,8.8z"/>
			<path id="XMLID_15_" class="st0" d="M133.6,10.2h-5.7c0-0.1,0-0.1,0-0.2c-0.6-1.6-2.5-2.6-2.7-2.7c-0.4-0.2-0.9,0-1.2,0.4
				c-0.2,0.4,0,0.9,0.4,1.2c0.3,0.2,1.1,0.7,1.6,1.3h-7.3c-0.5,0-0.9,0.4-0.9,0.9c0,0.5,0.4,0.9,0.9,0.9h14.9c0.5,0,0.9-0.4,0.9-0.9
				C134.4,10.6,134,10.2,133.6,10.2z"/>
			<path id="XMLID_14_" class="st0" d="M119.8,15.3h12.6c0.4,0,0.8-0.3,0.8-0.8c0-0.4-0.3-0.8-0.8-0.8h-12.6c-0.4,0-0.8,0.3-0.8,0.8
				C119,14.9,119.4,15.3,119.8,15.3z"/>
			<path id="XMLID_13_" class="st0" d="M119.8,18.5h12.6c0.4,0,0.8-0.3,0.8-0.8c0-0.4-0.3-0.8-0.8-0.8h-12.6c-0.4,0-0.8,0.3-0.8,0.8
				C119,18.1,119.4,18.5,119.8,18.5z"/>
			<path id="XMLID_10_" class="st0" d="M131.8,20.5h-11.3c-1.2,0-2.2,1-2.2,2.2v2.7c0,1.2,1,2.2,2.2,2.2h11.3c1.2,0,2.2-1,2.2-2.2
				v-2.7C134,21.5,133,20.5,131.8,20.5z M132.2,25.4c0,0.3-0.2,0.5-0.5,0.5h-11.3c-0.3,0-0.5-0.2-0.5-0.5v-2.7
				c0-0.3,0.2-0.5,0.5-0.5h11.3c0.3,0,0.5,0.2,0.5,0.5V25.4z"/>
		</g>
		<g id="XMLID_4_">
			<path id="XMLID_8_" class="st0" d="M142.2,18.3v-6c0-0.5-0.4-0.9-0.9-0.9c-0.5,0-0.9,0.4-0.9,0.9l0,6c0,0.1,0.1,5.1-3.9,7.6
				c-0.4,0.3-0.5,0.8-0.3,1.2c0.2,0.3,0.4,0.4,0.7,0.4c0.2,0,0.3,0,0.5-0.1C142.4,24.4,142.2,18.5,142.2,18.3z"/>
			<path id="XMLID_7_" class="st0" d="M158.5,10.3h-1.9V8.1c0-0.5-0.4-0.9-0.9-0.9c-0.5,0-0.9,0.4-0.9,0.9v2.2h-6.9
				c-0.5,0-0.9,0.4-0.9,0.9c0,0.5,0.4,0.9,0.9,0.9h4.3c-0.4,2.5-1.8,10.5-5.3,13.8c-0.3,0.3-0.4,0.9,0,1.2c0.2,0.2,0.4,0.3,0.6,0.3
				c0.2,0,0.4-0.1,0.6-0.2c4.1-3.9,5.6-12.8,5.9-15.1h0.8v12.2c0,0,0,0.1,0,0.1c0,0.1,0,0.8-0.2,1.1c-0.1,0.1-0.2,0.2-0.6,0.2
				l-1.5-0.1c-0.5,0-0.9,0.3-0.9,0.8c0,0.5,0.3,0.9,0.8,0.9l1.6,0.1c1,0,1.6-0.4,1.9-0.8c0.8-0.9,0.7-2.1,0.7-2.5V12h1.9
				c0.5,0,0.9-0.4,0.9-0.9C159.3,10.7,158.9,10.3,158.5,10.3z"/>
			<path id="XMLID_6_" class="st0" d="M143.9,7.8h-5.1c-1.2,0-2.2,1-2.2,2.2v11.4c0,0.5,0.4,0.9,0.9,0.9c0.5,0,0.9-0.4,0.9-0.9V10
				c0-0.3,0.2-0.5,0.5-0.5h5.1c0.3,0,0.5,0.2,0.5,0.5v10.6c0,0.5,0.4,0.9,0.9,0.9c0.5,0,0.9-0.4,0.9-0.9V10
				C146.1,8.8,145.1,7.8,143.9,7.8z"/>
			<path id="XMLID_5_" class="st0" d="M143.4,21.8c-0.3-0.4-0.8-0.5-1.2-0.3c-0.4,0.3-0.5,0.8-0.3,1.2c0,0,1.2,1.9,2.1,4.2
				c0.1,0.3,0.5,0.6,0.8,0.6c0.1,0,0.2,0,0.3-0.1c0.4-0.2,0.7-0.7,0.5-1.1C144.7,23.8,143.5,21.9,143.4,21.8z"/>
		</g>
	</g>
</g>
<g id="XMLID_235_">
	<g id="XMLID_236_">
		<g id="XMLID_237_">
			<path id="XMLID_238_" class="st0" d="M199.1,33.3v2.3c0,0.1-0.1,0.3-0.3,0.3c-0.1,0-0.3-0.1-0.3-0.3v-4.9c0-0.1,0.1-0.3,0.3-0.3
				c0.1,0,0.3,0.1,0.3,0.3v2.1h2.7v-2.1c0-0.1,0.1-0.3,0.3-0.3c0.1,0,0.3,0.1,0.3,0.3v4.9c0,0.1-0.1,0.3-0.3,0.3
				c-0.1,0-0.3-0.1-0.3-0.3v-2.3H199.1z"/>
		</g>
		<g id="XMLID_240_">
			<path id="XMLID_241_" class="st0" d="M206.3,32.4v2c0,0.5,0.2,0.9,0.9,0.9c0.8,0,0.9-0.4,0.9-0.9v-2c0-0.1,0.1-0.2,0.3-0.2
				c0.1,0,0.2,0.1,0.2,0.2v2c0,0.7-0.2,1.4-1.4,1.4c-1.2,0-1.4-0.7-1.4-1.4v-2c0-0.1,0.1-0.2,0.2-0.2
				C206.2,32.1,206.3,32.2,206.3,32.4z"/>
		</g>
		<g id="XMLID_243_">
			<path id="XMLID_244_" class="st0" d="M212.5,33c-0.1,0.1-0.1,0.1-0.2,0.1c-0.1,0-0.2-0.1-0.2-0.2c0-0.1,0-0.1,0-0.1
				c0.2-0.3,0.6-0.6,1.3-0.6c0.9,0,1.4,0.5,1.4,1.3v2.2c0,0.1-0.1,0.2-0.2,0.2c-0.1,0-0.2-0.1-0.2-0.2v-0.3
				c-0.2,0.4-0.6,0.6-1.1,0.6c-0.8,0-1.3-0.4-1.3-1.1c0-0.7,0.5-1.1,1.4-1.1h1.1v-0.2c0-0.5-0.3-0.9-0.9-0.9
				C213,32.6,212.8,32.7,212.5,33z M214.4,34.4v-0.3h-1.1c-0.5,0-0.9,0.2-0.9,0.7c0,0.4,0.3,0.7,0.9,0.7
				C213.8,35.4,214.4,35.1,214.4,34.4z"/>
		</g>
		<g id="XMLID_247_">
			<path id="XMLID_248_" class="st0" d="M219.3,34.3l-1,1.4c0,0.1-0.1,0.1-0.2,0.1c-0.1,0-0.2-0.1-0.2-0.2c0-0.1,0-0.1,0-0.1
				l1.1-1.5l-1-1.4c0,0,0-0.1,0-0.1c0-0.1,0.1-0.2,0.2-0.2c0.1,0,0.2,0,0.2,0.1l0.9,1.3l0.9-1.3c0-0.1,0.1-0.1,0.2-0.1
				c0.1,0,0.2,0.1,0.2,0.2c0,0.1,0,0.1,0,0.1l-1,1.4l1.1,1.5c0,0,0,0.1,0,0.1c0,0.1-0.1,0.2-0.2,0.2c-0.1,0-0.2,0-0.2-0.1
				L219.3,34.3z"/>
		</g>
		<g id="XMLID_250_">
			<path id="XMLID_251_" class="st0" d="M223.9,31.1c0-0.2,0.1-0.3,0.3-0.3c0.2,0,0.3,0.1,0.3,0.3c0,0.2-0.1,0.3-0.3,0.3
				C224,31.4,223.9,31.3,223.9,31.1z M224.4,35.6c0,0.1-0.1,0.2-0.2,0.2c-0.1,0-0.2-0.1-0.2-0.2v-3.2c0-0.1,0.1-0.2,0.2-0.2
				c0.1,0,0.2,0.1,0.2,0.2V35.6z"/>
		</g>
		<g id="XMLID_254_">
			<path id="XMLID_255_" class="st0" d="M228.3,33c-0.1,0.1-0.1,0.1-0.2,0.1c-0.1,0-0.2-0.1-0.2-0.2c0-0.1,0-0.1,0-0.1
				c0.2-0.3,0.6-0.6,1.3-0.6c0.9,0,1.4,0.5,1.4,1.3v2.2c0,0.1-0.1,0.2-0.2,0.2c-0.1,0-0.2-0.1-0.2-0.2v-0.3
				c-0.2,0.4-0.6,0.6-1.1,0.6c-0.8,0-1.3-0.4-1.3-1.1c0-0.7,0.5-1.1,1.4-1.1h1.1v-0.2c0-0.5-0.3-0.9-0.9-0.9
				C228.8,32.6,228.6,32.7,228.3,33z M230.1,34.4v-0.3H229c-0.5,0-0.9,0.2-0.9,0.7c0,0.4,0.3,0.7,0.9,0.7
				C229.6,35.4,230.1,35.1,230.1,34.4z"/>
		</g>
		<g id="XMLID_258_">
			<path id="XMLID_259_" class="st0" d="M239,35.5c0,0.1-0.1,0.3-0.3,0.3c-0.1,0-0.3-0.1-0.3-0.3v-4.8c0-0.1,0.1-0.3,0.3-0.3h2.5
				c0.1,0,0.2,0.1,0.2,0.2s-0.1,0.2-0.2,0.2H239v1.9h1.7c0.1,0,0.2,0.1,0.2,0.2c0,0.1-0.1,0.2-0.2,0.2H239V35.5z"/>
		</g>
		<g id="XMLID_261_">
			<path id="XMLID_262_" class="st0" d="M244.6,31.1c0-0.2,0.1-0.3,0.3-0.3c0.2,0,0.3,0.1,0.3,0.3c0,0.2-0.1,0.3-0.3,0.3
				C244.7,31.4,244.6,31.3,244.6,31.1z M245.1,35.6c0,0.1-0.1,0.2-0.2,0.2c-0.1,0-0.2-0.1-0.2-0.2v-3.2c0-0.1,0.1-0.2,0.2-0.2
				c0.1,0,0.2,0.1,0.2,0.2V35.6z"/>
		</g>
		<g id="XMLID_265_">
			<path id="XMLID_266_" class="st0" d="M251.6,33.5v2.1c0,0.1-0.1,0.2-0.2,0.2c-0.1,0-0.2-0.1-0.2-0.2v-2c0-0.6-0.2-1-0.9-1
				c-0.8,0-1,0.5-1,1.1v1.9c0,0.1-0.1,0.2-0.2,0.2c-0.1,0-0.2-0.1-0.2-0.2v-3.2c0-0.1,0.1-0.2,0.2-0.2c0.1,0,0.2,0.1,0.2,0.2v0.3
				c0.1-0.3,0.5-0.5,1-0.5C251.4,32.1,251.6,32.8,251.6,33.5z"/>
		</g>
		<g id="XMLID_268_">
			<path id="XMLID_269_" class="st0" d="M255.4,33c-0.1,0.1-0.1,0.1-0.2,0.1c-0.1,0-0.2-0.1-0.2-0.2c0-0.1,0-0.1,0-0.1
				c0.2-0.3,0.6-0.6,1.3-0.6c0.9,0,1.4,0.5,1.4,1.3v2.2c0,0.1-0.1,0.2-0.2,0.2c-0.1,0-0.2-0.1-0.2-0.2v-0.3
				c-0.2,0.4-0.6,0.6-1.1,0.6c-0.8,0-1.3-0.4-1.3-1.1c0-0.7,0.5-1.1,1.4-1.1h1.1v-0.2c0-0.5-0.3-0.9-0.9-0.9
				C255.9,32.6,255.7,32.7,255.4,33z M257.2,34.4v-0.3h-1.1c-0.5,0-0.9,0.2-0.9,0.7c0,0.4,0.3,0.7,0.9,0.7
				C256.7,35.4,257.2,35.1,257.2,34.4z"/>
		</g>
		<g id="XMLID_272_">
			<path id="XMLID_273_" class="st0" d="M264.1,33.5v2.1c0,0.1-0.1,0.2-0.2,0.2s-0.2-0.1-0.2-0.2v-2c0-0.6-0.2-1-0.9-1
				c-0.8,0-1,0.5-1,1.1v1.9c0,0.1-0.1,0.2-0.2,0.2c-0.1,0-0.2-0.1-0.2-0.2v-3.2c0-0.1,0.1-0.2,0.2-0.2c0.1,0,0.2,0.1,0.2,0.2v0.3
				c0.1-0.3,0.5-0.5,1-0.5C263.9,32.1,264.1,32.8,264.1,33.5z"/>
		</g>
		<g id="XMLID_275_">
			<path id="XMLID_276_" class="st0" d="M268.9,32.1c0.7,0,1.1,0.4,1.2,0.5c0,0.1,0.1,0.1,0.1,0.1c0,0.1-0.1,0.2-0.2,0.2
				c-0.1,0-0.1,0-0.2-0.1c-0.1-0.1-0.3-0.4-0.8-0.4c-0.7,0-1.1,0.5-1.1,1.4c0,1,0.4,1.4,1.1,1.4c0.5,0,0.7-0.2,0.9-0.3
				c0.1,0,0.1-0.1,0.1-0.1c0.1,0,0.2,0.1,0.2,0.2c0,0.1,0,0.1-0.1,0.2c-0.2,0.1-0.5,0.4-1.2,0.4c-1,0-1.6-0.6-1.6-1.9
				C267.3,32.7,267.9,32.1,268.9,32.1z"/>
		</g>
		<g id="XMLID_278_">
			<path id="XMLID_279_" class="st0" d="M274.8,32.1c1.2,0,1.5,1,1.5,1.5c0,0.2,0,0.5-0.3,0.5h-2.3c0,0.8,0.4,1.3,1.2,1.3
				c0.5,0,0.7-0.2,0.9-0.3c0,0,0.1,0,0.1,0c0.1,0,0.2,0.1,0.2,0.2c0,0.1,0,0.1-0.1,0.2c-0.1,0.1-0.5,0.4-1.2,0.4
				c-1,0-1.7-0.6-1.7-1.9C273.2,32.8,273.8,32.1,274.8,32.1z M274.8,32.5c-0.7,0-1,0.4-1.1,1.1h2.1
				C275.8,33.1,275.6,32.5,274.8,32.5z"/>
		</g>
	</g>
	<g id="XMLID_1_">
		<g id="XMLID_38_">
			<g id="XMLID_53_">
				<path id="XMLID_54_" class="st0" d="M252.6,15.4h-11.1c-0.4,0-0.8-0.3-0.8-0.8c0-0.4,0.3-0.8,0.8-0.8h11.1
					c0.4,0,0.8,0.3,0.8,0.8C253.4,15,253,15.4,252.6,15.4z"/>
			</g>
			<g id="XMLID_51_">
				<path id="XMLID_52_" class="st0" d="M254.5,19.8h-14.8c-0.4,0-0.8-0.3-0.8-0.8s0.3-0.8,0.8-0.8h14.8c0.4,0,0.8,0.3,0.8,0.8
					S254.9,19.8,254.5,19.8z"/>
			</g>
			<g id="XMLID_49_">
				<path id="XMLID_50_" class="st0" d="M247.1,27.2c-0.4,0-0.8-0.3-0.8-0.8V14.6c0-0.4,0.3-0.8,0.8-0.8c0.4,0,0.8,0.3,0.8,0.8v11.9
					C247.8,26.9,247.5,27.2,247.1,27.2z"/>
			</g>
			<g id="XMLID_47_">
				<path id="XMLID_48_" class="st0" d="M255.4,27.2h-16.6c-0.4,0-0.8-0.3-0.8-0.8s0.3-0.8,0.8-0.8h16.6c0.4,0,0.8,0.3,0.8,0.8
					S255.8,27.2,255.4,27.2z"/>
			</g>
			<g id="XMLID_45_">
				<path id="XMLID_46_" class="st0" d="M243.6,27.2c-0.3,0-0.6-0.2-0.7-0.5l-2-4.6c-0.2-0.4,0-0.8,0.4-1c0.4-0.2,0.8,0,1,0.4l2,4.6
					c0.2,0.4,0,0.8-0.4,1C243.8,27.2,243.7,27.2,243.6,27.2z"/>
			</g>
			<g id="XMLID_43_">
				<path id="XMLID_44_" class="st0" d="M250.7,27.2c-0.1,0-0.2,0-0.3-0.1c-0.4-0.2-0.6-0.6-0.4-1l1.9-4.6c0.2-0.4,0.6-0.6,1-0.4
					c0.4,0.2,0.6,0.6,0.4,1l-1.9,4.6C251.3,27.1,251,27.2,250.7,27.2z"/>
			</g>
			<g id="XMLID_41_">
				<path id="XMLID_42_" class="st0" d="M238.9,16.6c-0.1,0-0.2,0-0.3-0.1c-0.4-0.2-0.6-0.6-0.4-1l2-4.7c0.2-0.7,0.9-1.8,2.4-1.8
					l5.2,0l2.1-2.8c0.2-0.3,0.7-0.4,1.1-0.2c0.3,0.2,0.4,0.7,0.2,1.1l-2.3,3.2c-0.1,0.2-0.4,0.3-0.6,0.3h-5.6c-0.8,0-1,0.7-1,0.7
					c0,0,0,0.1,0,0.1l-2,4.7C239.4,16.4,239.1,16.6,238.9,16.6z"/>
			</g>
			<g id="XMLID_39_">
				<path id="XMLID_40_" class="st0" d="M255.4,16.6c-0.3,0-0.6-0.2-0.7-0.5l-2-4.7c0,0,0-0.1,0-0.1c0-0.1-0.2-0.7-1-0.7l-1.2,0
					c-0.4,0-0.8-0.3-0.8-0.8c0-0.4,0.3-0.8,0.8-0.8h1.2c1.6,0,2.2,1.2,2.4,1.8l2,4.7c0.2,0.4,0,0.8-0.4,1
					C255.6,16.6,255.5,16.6,255.4,16.6z"/>
			</g>
		</g>
		<g id="XMLID_28_">
			<g id="XMLID_34_">
				<path id="XMLID_35_" class="st0" d="M265.5,16.2h-4.1c-1.6,0-2.9-1.3-2.9-2.9c0-1.6,1.3-2.9,2.9-2.9h4.1c1.6,0,2.9,1.3,2.9,2.9
					C268.4,14.9,267.1,16.2,265.5,16.2z M261.4,12c-0.7,0-1.4,0.6-1.4,1.4c0,0.8,0.6,1.4,1.4,1.4h4.1c0.7,0,1.4-0.6,1.4-1.4
					c0-0.8-0.6-1.4-1.4-1.4H261.4z"/>
			</g>
			<g id="XMLID_32_">
				<path id="XMLID_33_" class="st0" d="M265.5,27.7c-0.3,0-0.7-0.2-0.7-0.6c-0.1-0.4,0.2-0.8,0.6-0.9c1.1-0.2,1.8-1.2,1.8-2.3v-3.5
					c0-1.3-1-2.3-2.3-2.3h-2.6c-1.3,0-2.3,1.1-2.3,2.3v6.2c0,0.4-0.3,0.8-0.8,0.8s-0.8-0.3-0.8-0.8v-6.2c0-2.1,1.7-3.9,3.8-3.9h2.6
					c2.1,0,3.8,1.7,3.8,3.9v3.5c0,1.8-1.2,3.4-3,3.8C265.6,27.7,265.5,27.7,265.5,27.7z"/>
			</g>
			<g id="XMLID_29_">
				<path id="XMLID_30_" class="st0" d="M273.1,21.9L273.1,21.9c-2.2,0-3.9-1.7-3.9-3.9v-3.3c0-2.1,1.7-3.9,3.8-3.9h0.1
					c2.1,0,3.8,1.7,3.8,3.9v3.3C276.9,20.2,275.2,21.9,273.1,21.9z M273,12.4c-1.3,0-2.3,1.1-2.3,2.3v3.3c0,1.3,1,2.3,2.3,2.3h0.1
					c1.3,0,2.3-1.1,2.3-2.3v-3.3C275.4,13.5,274.3,12.4,273,12.4L273,12.4z"/>
			</g>
			<g id="XMLID_311_">
				<path id="XMLID_312_" class="st0" d="M275,27.2c-0.1,0-0.1,0-0.1,0h-5.2c-0.4,0-0.8-0.3-0.8-0.8s0.3-0.8,0.8-0.8h5.2
					c0,0,0.1,0,0.1,0c0,0,0,0,0,0c0,0,0.2,0,0.3-0.1c0.2-0.2,0.2-0.6,0.2-1.2c0-0.4,0.3-0.8,0.7-0.8c0.4,0,0.8,0.3,0.8,0.7
					c0.1,1.1-0.1,1.9-0.6,2.5C275.9,27.2,275.3,27.2,275,27.2z"/>
			</g>
			<g id="XMLID_313_">
				<path id="XMLID_314_" class="st0" d="M267.8,10.1h-8.8c-0.4,0-0.8-0.3-0.8-0.8s0.3-0.8,0.8-0.8h8.8c0.4,0,0.8,0.3,0.8,0.8
					S268.2,10.1,267.8,10.1z"/>
			</g>
			<g id="XMLID_315_">
				<path id="XMLID_316_" class="st0" d="M273,27.2c-0.4,0-0.8-0.3-0.8-0.8V9.2c0-0.4,0.3-0.8,0.8-0.8c0.4,0,0.8,0.3,0.8,0.8v17.3
					C273.8,26.9,273.4,27.2,273,27.2z"/>
			</g>
			<g id="XMLID_317_">
				<path id="XMLID_318_" class="st0" d="M266.2,22.9h-5.6c-0.4,0-0.8-0.3-0.8-0.8s0.3-0.8,0.8-0.8h5.6c0.4,0,0.8,0.3,0.8,0.8
					S266.6,22.9,266.2,22.9z"/>
			</g>
			<g id="XMLID_319_">
				<path id="XMLID_320_" class="st0" d="M261.8,22.9c-0.4,0-0.8-0.3-0.8-0.8v-2.4c0-0.4,0.3-0.8,0.8-0.8s0.8,0.3,0.8,0.8v2.4
					C262.5,22.6,262.2,22.9,261.8,22.9z"/>
			</g>
			<g id="XMLID_321_">
				<path id="XMLID_322_" class="st0" d="M265,22.9c-0.4,0-0.8-0.3-0.8-0.8v-2.4c0-0.4,0.3-0.8,0.8-0.8s0.8,0.3,0.8,0.8v2.4
					C265.8,22.6,265.4,22.9,265,22.9z"/>
			</g>
			<g id="XMLID_323_">
				<path id="XMLID_324_" class="st0" d="M263.4,27.2c-0.4,0-0.8-0.3-0.8-0.8v-4.3c0-0.4,0.3-0.8,0.8-0.8c0.4,0,0.8,0.3,0.8,0.8v4.3
					C264.1,26.9,263.8,27.2,263.4,27.2z"/>
			</g>
		</g>
		<g id="XMLID_325_">
			<g id="XMLID_326_">
				<path id="XMLID_327_" class="st0" d="M215.6,12h-17.4c-0.4,0-0.8-0.3-0.8-0.8s0.3-0.8,0.8-0.8h17.4c0.4,0,0.8,0.3,0.8,0.8
					S216,12,215.6,12z"/>
			</g>
			<g id="XMLID_328_">
				<path id="XMLID_329_" class="st0" d="M211.4,14.1c-0.4,0-0.8-0.3-0.8-0.8V8.8c0-0.4,0.3-0.8,0.8-0.8c0.4,0,0.8,0.3,0.8,0.8v4.5
					C212.1,13.8,211.8,14.1,211.4,14.1z"/>
			</g>
			<g id="XMLID_330_">
				<path id="XMLID_331_" class="st0" d="M202.1,14.1c-0.4,0-0.8-0.3-0.8-0.8V8.8c0-0.4,0.3-0.8,0.8-0.8c0.4,0,0.8,0.3,0.8,0.8v4.5
					C202.9,13.8,202.6,14.1,202.1,14.1z"/>
			</g>
			<g id="XMLID_332_">
				<path id="XMLID_333_" class="st0" d="M201.6,27.8c-0.4,0-0.8-0.3-0.8-0.8v-7.9c-0.1,0.1-0.2,0.3-0.4,0.4c-1.1,1-2,1.3-2.1,1.4
					c-0.4,0.1-0.8-0.1-1-0.5c-0.1-0.4,0.1-0.8,0.5-1c0,0,0.7-0.2,1.5-1c0.9-0.8,1.5-2.2,1.5-2.2c0.1-0.3,0.5-0.5,0.8-0.5
					c0.4,0.1,0.6,0.4,0.6,0.7V27C202.4,27.4,202.1,27.8,201.6,27.8z"/>
			</g>
			<g id="XMLID_334_">
				<path id="XMLID_335_" class="st0" d="M214.9,27.6h-3.4c-2.5-0.1-3.2-2-3.2-3l0-9.5c0-0.4,0.3-0.8,0.8-0.8c0.4,0,0.8,0.3,0.8,0.8
					v9.5c0,0.2,0.2,1.4,1.7,1.5l3.4,0c0.4,0,0.8,0.3,0.8,0.8C215.7,27.3,215.3,27.6,214.9,27.6z"/>
			</g>
			<g id="XMLID_336_">
				<path id="XMLID_337_" class="st0" d="M205.2,24.1c-0.3,0-0.6-0.2-0.7-0.5c-0.1-0.4,0.1-0.8,0.5-1c5.3-1.8,8.4-6.6,8.5-6.6
					c0.2-0.4,0.7-0.5,1-0.2c0.4,0.2,0.5,0.7,0.2,1c-0.1,0.2-3.5,5.2-9.2,7.2C205.4,24.1,205.3,24.1,205.2,24.1z"/>
			</g>
		</g>
		<g id="XMLID_338_">
			<g id="XMLID_339_">
				<path id="XMLID_340_" class="st0" d="M221.9,21.9h-0.4c-2.1,0-3.8-1.7-3.8-3.9v-3.3c0-2.1,1.7-3.9,3.8-3.9h0.4
					c2.1,0,3.8,1.7,3.8,3.9v3.3C225.8,20.2,224.1,21.9,221.9,21.9z M221.5,12.4c-1.3,0-2.3,1.1-2.3,2.3v3.3c0,1.3,1,2.3,2.3,2.3h0.4
					c1.3,0,2.3-1.1,2.3-2.3v-3.3c0-1.3-1-2.3-2.3-2.3H221.5z"/>
			</g>
			<g id="XMLID_343_">
				<path id="XMLID_344_" class="st0" d="M223.7,27.2c-0.1,0-0.1,0-0.1,0h-5.2c-0.4,0-0.8-0.3-0.8-0.8s0.3-0.8,0.8-0.8h5.2
					c0,0,0.1,0,0.1,0c0,0,0,0,0,0c0,0,0.2,0,0.3-0.1c0.2-0.2,0.2-0.6,0.2-1.2c0-0.4,0.3-0.8,0.7-0.8c0.4,0,0.8,0.3,0.8,0.7
					c0.1,1.1-0.1,1.9-0.6,2.5C224.7,27.2,224.1,27.2,223.7,27.2z"/>
			</g>
			<g id="XMLID_345_">
				<path id="XMLID_346_" class="st0" d="M235.6,10.3h-9.5c-0.4,0-0.8-0.3-0.8-0.8c0-0.4,0.3-0.8,0.8-0.8h9.5c0.4,0,0.8,0.3,0.8,0.8
					C236.4,9.9,236,10.3,235.6,10.3z"/>
			</g>
			<g id="XMLID_347_">
				<path id="XMLID_348_" class="st0" d="M230,27.2c-0.4,0-0.8-0.3-0.8-0.8v-17c0-0.4,0.3-0.8,0.8-0.8c0.4,0,0.8,0.3,0.8,0.8v17
					C230.8,26.9,230.4,27.2,230,27.2z"/>
			</g>
			<g id="XMLID_349_">
				<path id="XMLID_350_" class="st0" d="M221.7,27.2c-0.4,0-0.8-0.3-0.8-0.8V7.9c0-0.4,0.3-0.8,0.8-0.8c0.4,0,0.8,0.3,0.8,0.8v18.6
					C222.5,26.9,222.1,27.2,221.7,27.2z"/>
			</g>
			<g id="XMLID_351_">
				<path id="XMLID_352_" class="st0" d="M235.6,25c-0.1,0-0.2,0-0.3-0.1c-3.4-1.7-3.9-9.9-3.9-10.9c0-0.4,0.3-0.8,0.7-0.8
					c0.4,0,0.8,0.3,0.8,0.7c0.1,3.2,1.1,8.6,3.1,9.6c0.4,0.2,0.5,0.6,0.3,1C236.2,24.8,235.9,25,235.6,25z"/>
			</g>
		</g>
	</g>
</g>
<rect id="XMLID_58_" x="179" y="9.3" class="st0" width="1" height="26"/>
</svg>
