<?xml version="1.0" encoding="utf-8"?>
<!-- Generator: Adobe Illustrator 19.0.0, SVG Export Plug-In . SVG Version: 6.00 Build 0)  -->
<svg version="1.1" id="图层_1" xmlns="http://www.w3.org/2000/svg" xmlns:xlink="http://www.w3.org/1999/xlink" x="0px" y="0px"
	 viewBox="0 0 60 60" style="enable-background:new 0 0 60 60;" xml:space="preserve">
<style type="text/css">
	.st0{fill:#A8ADB3;}
</style>
<path id="XMLID_2_" class="st0" d="M49.9,9.9c-5.4-5.4-12.5-8.3-20.1-8.3c-7.5,0-14.7,2.9-20.1,8.3S1.3,22.4,1.3,30
	c0,7.5,2.9,14.7,8.3,20.1s12.5,8.3,20.1,8.3c4.4,0,8.4-0.8,11.7-2.4c3-1.5,5.2-3.5,6.2-5.9c1.2-2.8,0.5-5.7-1.8-8l0-0.1l0.1-0.1
	c1.7-1.8,1.7-4,0-5.7l-4-4c-0.8-0.8-1.8-1.3-2.7-1.3s-2,0.4-2.8,1.3l-2.1,2.1c-0.1-0.1-0.2-0.1-0.3-0.2c-0.3-0.1-0.5-0.3-0.7-0.4
	c-2.2-1.4-4.1-3.1-6-5.4c-0.8-1-1.4-1.9-1.8-2.7c0.5-0.5,1-1,1.5-1.5c0.2-0.2,0.4-0.4,0.6-0.6c1.8-1.8,1.8-3.9,0-5.7l-2-2
	c-0.2-0.2-0.5-0.5-0.7-0.7c-0.5-0.5-0.9-0.9-1.4-1.4c-0.8-0.8-1.8-1.2-2.7-1.2s-2,0.4-2.7,1.2l0,0l-2.5,2.5c-1,1-1.6,2.3-1.7,3.6
	c-0.2,2.3,0.5,4.3,1,5.6c1.2,3.2,3,6.3,5.7,9.5c3.2,3.9,7.1,7,11.7,9.1c1.8,0.8,4,1.8,6.7,2c0.2,0,0.3,0,0.5,0c1.8,0,3.3-0.7,4.5-2
	l0,0l0.1-0.1l0.1,0.1c1.5,1.5,1.9,3.2,1.2,4.9c-1.4,3.2-6.6,6.5-15.2,6.5C16,55.4,4.5,43.9,4.5,29.8S16,4.2,30.2,4.2
	s25.6,11.5,25.6,25.6c0,2.4-0.3,4.6-0.9,6.9c-0.2,0.8,0.2,1.6,1,1.8s1.6-0.2,1.8-1c0.7-2.4,1-5,1-7.5C58.2,22.5,55.3,15.3,49.9,9.9
	L49.9,9.9z M41.5,42.5c-0.7,0.7-1.4,1-2.4,1c-0.1,0-0.2,0-0.3,0c-2.1-0.1-4.1-1-5.6-1.7c-4.1-2-7.7-4.8-10.7-8.4
	c-2.4-2.9-4.1-5.7-5.2-8.6c-0.7-1.8-0.9-3.1-0.8-4.4c0.1-0.8,0.4-1.4,0.9-2l2.5-2.5c0.2-0.2,0.5-0.4,0.8-0.4s0.6,0.2,0.8,0.4l0,0
	c0.5,0.4,0.9,0.9,1.3,1.3c0.2,0.2,0.5,0.5,0.7,0.7l2,2c0.6,0.6,0.6,1.1,0,1.7c-0.2,0.2-0.4,0.4-0.6,0.6c-0.6,0.6-1.2,1.2-1.9,1.8
	c0,0,0,0-0.1,0.1c-0.9,0.9-0.6,1.8-0.5,2.1v0.1c0.5,1.3,1.3,2.5,2.4,3.9l0,0c2.1,2.5,4.2,4.5,6.7,6c0.3,0.2,0.6,0.4,1,0.5
	c0.3,0.1,0.5,0.3,0.7,0.4c0,0,0.1,0,0.1,0.1c0.3,0.2,0.6,0.2,0.9,0.2c0.5,0,1-0.2,1.4-0.6l2.5-2.5c0.2-0.2,0.5-0.4,0.8-0.4
	s0.6,0.2,0.8,0.4l0,0l4,4c0.6,0.6,0.6,1.1,0,1.8l0,0c-0.3,0.3-0.6,0.6-0.9,0.9C42.4,41.4,41.9,41.9,41.5,42.5L41.5,42.5z"/>
</svg>
